<?xml version="1.0" encoding="UTF-8" standalone="no"?>
<!-- Created with Inkscape (http://www.inkscape.org/) -->

<svg
   xmlns:dc="http://purl.org/dc/elements/1.1/"
   xmlns:cc="http://creativecommons.org/ns#"
   xmlns:rdf="http://www.w3.org/1999/02/22-rdf-syntax-ns#"
   xmlns:svg="http://www.w3.org/2000/svg"
   xmlns="http://www.w3.org/2000/svg"
   xmlns:sodipodi="http://sodipodi.sourceforge.net/DTD/sodipodi-0.dtd"
   xmlns:inkscape="http://www.inkscape.org/namespaces/inkscape"
   width="500"
   height="330"
   viewBox="0 0 500.00001 330.00001"
   id="svg2"
   version="1.1"
   inkscape:version="0.91 r13725"
   sodipodi:docname="splash.svg"
   inkscape:export-filename="C:\workspace\bflow\plugins\org.bflow.toolbox.application\splash.png"
   inkscape:export-xdpi="90"
   inkscape:export-ydpi="90">
  <defs
     id="defs4" />
  <sodipodi:namedview
     id="base"
     pagecolor="#ffffff"
     bordercolor="#666666"
     borderopacity="1.0"
     inkscape:pageopacity="0.0"
     inkscape:pageshadow="2"
     inkscape:zoom="1.4"
     inkscape:cx="378.86827"
     inkscape:cy="237.69553"
     inkscape:document-units="px"
     inkscape:current-layer="layer1"
     showgrid="false"
     units="px"
     showguides="true"
     inkscape:guide-bbox="true"
     inkscape:window-width="1920"
     inkscape:window-height="1148"
     inkscape:window-x="-8"
     inkscape:window-y="-8"
     inkscape:window-maximized="1">
    <inkscape:grid
       type="xygrid"
       id="grid4140"
       spacingx="166"
       spacingy="110" />
  </sodipodi:namedview>
  <metadata
     id="metadata7">
    <rdf:RDF>
      <cc:Work
         rdf:about="">
        <dc:format>image/svg+xml</dc:format>
        <dc:type
           rdf:resource="http://purl.org/dc/dcmitype/StillImage" />
        <dc:title></dc:title>
      </cc:Work>
    </rdf:RDF>
  </metadata>
  <g
     inkscape:label="Ebene 1"
     inkscape:groupmode="layer"
     id="layer1"
     transform="translate(0,-722.36216)">
    <g
       transform="matrix(1.4825397,0,0,1.4825397,-163.27213,188.24927)"
       style="display:inline"
       inkscape:label="Logo"
       id="layer3">
      <g
         transform="matrix(0.59495134,0,0,0.60088221,90.926803,199.95243)"
         id="g3399">
        <path
           style="display:inline;fill:#000000"
           d="m 382.70912,427.9873 c -2.34271,-1.97126 -3.09923,-3.36326 -2.87557,-5.2911 0.54362,-4.68583 5.98187,-3.76949 13.3035,2.24162 4.81033,3.94931 2.16472,4.13647 -2.97833,0.21069 -5.33742,-4.07414 -8.52167,-4.63814 -8.52167,-1.50938 0.87117,1.59932 2.11189,3.14478 3.49843,4.28864 1.09913,0.81885 1.71814,1.7691 1.37557,2.11168 -0.34258,0.34257 -2.05344,-0.5809 -3.80193,-2.05215 z m 10.2153,-6.03789 c -2.75078,-3.01155 -4.74611,-4.40724 -5.75,-4.02202 -0.95308,0.36574 -1.53737,0.0318 -1.53737,-0.87866 0,-2.86127 3.80058,-1.40863 7.87264,3.00904 3.40424,3.69317 5.11048,6.5592 3.87736,6.51297 -0.1375,-0.005 -2.14568,-2.08476 -4.46263,-4.62133 z"
           id="path3389"
           inkscape:connector-curvature="0"
           sodipodi:nodetypes="sssscccsscsscs" />
        <path
           style="display:inline;fill:#ffd42a"
           d="m 275.83458,443.08011 c 0,0 -2.83372,-0.88945 -9.20164,-0.68548 l -9.81927,0.31451 0.89565,3.12298 c 2.8336,9.88016 -12.44375,27.30857 -24.99526,28.51461 -7.01385,0.67394 -10.71549,-1.02603 -11.5151,-5.2883 -1.26609,-6.74882 0.0804,-9.61968 15.04468,-32.07608 6.26637,-9.40376 11.39341,-17.84126 11.39341,-18.75 0,-1.31602 1.01746,-1.65224 5,-1.65224 3.04661,0 5,0.44094 5,1.12865 0,0.62075 -4.06446,6.98129 -9.03214,14.13452 -4.96768,7.15323 -8.8796,13.15842 -8.69316,13.34487 0.18645,0.18644 1.97704,-0.7741 3.97909,-2.13453 3.469,-2.35725 4.33902,-2.47351 18.50959,-2.47351 l 14.86949,0 z m -34.88664,24.72917 c 5.14415,-4.9794 11.85221,-16.37707 12.0391,-20.45565 0.12318,-2.68806 -0.25209,-3.33063 -2.09826,-3.59285 -2.43106,-0.34528 -7.64387,2.88127 -10.57856,6.54776 -1.00475,1.2553 -2.4214,2.87694 -3.14811,3.60366 -2.00304,2.00303 -7.52506,13.3572 -7.52506,15.47273 0,1.02401 0.33437,2.19622 0.74306,2.6049 1.52757,1.52758 6.84326,-0.57527 10.56783,-4.18055 z"
           id="path3371"
           inkscape:connector-curvature="0"
           sodipodi:nodetypes="cscsssssssscssccsssssscs" />
        <path
           style="display:inline;fill:#000000"
           d="m 226.43945,495.57781 c -6.05761,-1.0908 -8.67136,-4.72874 -5.6024,-7.7977 2.70064,-2.70064 7.13815,-0.5173 4.76365,2.3438 -2.95921,3.56563 4.225,5.8417 10.72125,3.39666 6.3473,-2.38897 9.77154,-6.88647 36.11956,-47.44046 14.27138,-21.96603 22.59306,-30.67827 34.02844,-35.62548 4.69458,-2.03099 12.65402,-2.51372 13.69428,-0.83054 0.7432,1.20253 -2.09023,5.95602 -3.55023,5.95602 -0.53732,0 -0.97695,-1.0875 -0.97695,-2.41667 0,-4.98926 -5.48654,-3.9284 -11.87369,2.29586 -3.77892,3.68255 -13.06035,16.33813 -17.50653,23.87081 -0.56631,0.95943 1.19363,1.24589 7.5712,1.23233 l 8.30902,-0.0177 6.75,-10.27936 c 3.7125,-5.65365 6.75,-10.82071 6.75,-11.48234 0,-0.7368 1.55007,-1.20297 4,-1.20297 3.1854,0 4,0.36662 4,1.80026 0,0.99015 -6.54799,11.37132 -14.55109,23.06927 -15.50417,22.66212 -17.14006,25.59276 -15.43364,27.64887 2.36659,2.85156 7.72878,-1.40467 21.92383,-17.40202 5.28953,-5.96111 8.90149,-9.06458 12.5,-10.74023 8.76625,-4.08201 16.62434,-2.74397 18.5737,3.16264 3.62075,10.97097 -13.19054,29.46121 -26.78607,29.46121 -5.8922,0 -10.22673,-4.07019 -10.22673,-9.60308 l 0,-3.75692 -3.45105,4.03178 c -4.53476,5.29785 -13.18873,9.88643 -16.89244,8.95686 -3.07985,-0.773 -5.07152,-4.70369 -4.059,-8.01072 0.35665,-1.16486 3.74311,-6.7097 7.52547,-12.32188 3.78236,-5.61218 6.87702,-10.44968 6.87702,-10.75 0,-0.30032 -3.4875,-0.5188 -7.75,-0.4855 l -7.75,0.0605 -11.37264,17.37745 c -14.66288,22.40494 -19.16348,27.45324 -28.4333,31.89346 -7.83518,3.75303 -12.19461,4.63159 -17.89166,3.60572 z m 104.24033,-29.88864 c 6.68942,-7.15854 10.91892,-14.61045 11.22838,-19.78318 0.21495,-3.59288 0.0429,-3.84407 -2.82496,-4.12461 -5.60756,-0.54853 -17.33517,11.9728 -21.03065,22.45399 -1.56515,4.43914 -1.62385,5.38876 -0.42258,6.8362 2.48557,2.99494 6.93724,1.15884 13.04981,-5.3824 z m 16.06199,7.25173 c -3.97878,-2.78684 -2.53836,-8.48139 4.73346,-18.71333 3.36143,-4.72977 6.39676,-9.73535 6.74517,-11.12352 0.55536,-2.21275 1.16766,-2.52394 4.96604,-2.52394 2.38292,0 4.56968,0.38364 4.85947,0.85253 0.28979,0.46889 -2.65146,5.53139 -6.53612,11.25 -8.29162,12.20611 -10.17073,15.60629 -9.35459,16.92684 2.22242,3.59595 11.11106,-3.70863 18.89494,-15.52767 l 5.59912,-8.5017 4.52463,0 4.52462,0 -3.56952,5.58005 c -1.96324,3.06904 -4.63331,7.23154 -5.9335,9.25 -3.25554,5.05404 -3.80213,7.45442 -2.19722,9.64927 1.21612,1.66315 1.71953,1.72987 4.46655,0.59202 7.27658,-3.01406 19.00144,-20.17528 17.82001,-26.08244 -0.86729,-4.33643 3.5398,-7.12396 4.83103,-3.05567 1.07176,3.37682 -5.82327,15.32265 -13.21712,22.89903 -8.19321,8.39548 -14.78506,11.51373 -19.13821,9.05326 -2.17992,-1.23212 -2.62348,-2.19338 -2.62348,-5.68547 0,-2.31145 -0.0875,-4.20206 -0.19435,-4.20134 -0.10689,7.1e-4 -1.90689,1.6014 -4,3.55709 -6.69145,6.25214 -11.7853,8.1974 -15.20093,5.80499 z m 36.89528,-32.30177 c 0,-2.5151 1.6142,-3.50678 2.39522,-1.47149 0.95799,2.49651 0.7177,3.41247 -0.89522,3.41247 -0.825,0 -1.5,-0.87344 -1.5,-1.94098 z m 3.41121,-1.55678 c -0.79364,-3.16209 0.0814,-5.50224 2.05741,-5.50224 1.11994,0 1.53138,1.07468 1.53138,4 0,4.61324 -2.54102,5.67689 -3.58879,1.50224 z m 4.58879,-3.00224 c 0,-4.96191 2.02811,-6.18451 4.03589,-2.43294 0.86054,1.60793 0.75218,2.60745 -0.48787,4.5 -2.38287,3.63672 -3.54802,2.95791 -3.54802,-2.06706 z m 6.63148,-0.20185 c -1.3371,-1.33711 -0.62126,-7.36484 0.94606,-7.96628 2.28124,-0.87539 4.77162,1.99267 3.95751,4.55768 -0.71868,2.26437 -3.86247,4.4497 -4.90357,3.4086 z m 7.02651,-1.97349 c -0.82189,-0.82189 -0.86459,-4.78473 -0.0602,-5.58909 1.08557,-1.08558 3.40223,0.4458 3.40223,2.24897 0,2.00259 -2.34043,4.34169 -3.34201,3.34012 z"
           id="path3375"
           inkscape:connector-curvature="0"
           sodipodi:nodetypes="cssssssssssscssssssssssscsssssscssccsssssssssssssscccssssssssscssssssssssssssssssccscc" />
      </g>
    </g>
  </g>
</svg>
