/* XPM */
static char *win_2[] = {
/* columns rows colors chars-per-pixel */
"48 48 64 1 ",
"  c black",
". c #070707",
"X c gray3",
"o c #0E0E0E",
"O c #131313",
"+ c #161616",
"@ c #191919",
"# c #1D1D1D",
"$ c #232323",
"% c #272727",
"& c gray17",
"* c #2F2F2F",
"= c gray19",
"- c #353535",
"; c #393939",
": c #3C3C3C",
"> c #434343",
", c gray27",
"< c #4B4B4B",
"1 c gray30",
"2 c #535353",
"3 c #555555",
"4 c #5A5A5A",
"5 c #5F5F5F",
"6 c gray39",
"7 c gray40",
"8 c DimGray",
"9 c #6D6D6D",
"0 c #717171",
"q c #747474",
"w c gray47",
"e c gray50",
"r c #808080",
"t c #848484",
"y c #898989",
"u c gray55",
"i c #939393",
"p c #979797",
"a c #9B9B9B",
"s c #9D9D9D",
"d c #A2A2A2",
"f c gray65",
"g c gray66",
"h c #ACACAC",
"j c #B2B2B2",
"k c #B6B6B6",
"l c gray72",
"z c gray75",
"x c #C3C3C3",
"c c #C6C6C6",
"v c #CACACA",
"b c #CECECE",
"n c #D0D0D0",
"m c #D7D7D7",
"M c #D8D8D8",
"N c gray87",
"B c #E1E1E1",
"V c gray90",
"C c #EAEAEA",
"Z c #ECECEC",
"A c gray94",
"S c gray96",
"D c #F9F9F9",
"F c gray100",
/* pixels */
"FFFFFFFFFFFFFFFFFFFFSZCVMcznAFFFFFFFFFFFFFFFFFFF",
"FFFFFFFFFFFFFFFFSBnvxxxzlf8qpahBFFFFFFFFFFFFFFFF",
"FFFFFFFFFFFFFFCbxxcbnmmmmzxMvlfdjBFFFFFFFFFFFFFF",
"FFFFFFFFFFFFCczcbmMNBBVCMlMMmbvxjflBFFFFFFFFFFFF",
"FFFFFFFFFFSnzvnNNBVCSFFVcCABNmnbxlhdxDFFFFFFFFFF",
"FFFFFFFFFzhcnMBVCSFFbu<*$5CFVBMnbxzjsfCFFFFFFFFF",
"FFFFFFFFy9nMBVCAFCi,#++@@O=bFCBNnbxzkfpMFFFFFFFF",
"FFFFFFFt%jcvnNSCw&O+@#@#@#+$kFCBNnbxzjfumFFFFFFF",
"FFFFFFp%dmnMNBx=O@#########+#jFCBMnbxljsyNFFFFFF",
"FFFFFz&gNMVCZFdO##@##@#@@##@+#kFBNMnvzkhitZFFFFF",
"FFFFC;iMmNVZAFs+#####@###@##@+%cABMmbczhd2<FFFFF",
"FFFF69mbMBCZSFaO@##@######@###o>Bvccccxkg,.rFFFF",
"FFFl1cbmNBCZSFs+###@###@####@@OdDNncljhjs&o+nFFF",
"FFD5svbmNVCZSFd+#@###@@###@@#O7FZBNMnblgq++X2FFF",
"FFx8xvnmNVCAAFg+######@##@##O=ASCBNMnbczs%OoobFF",
"FFxszvnMMVCZSFl@@#@######@@@+xFCVBMmnvclz7OOX6FF",
"FFkhzbnmNVCZAFb@@@@#@@#@#@@OeFZCVNMmnvxlkd%oo#AF",
"FBsjxvmmNVCZASN,#+OO++@#@#O>DACVBNmnbczzkh2oOXkF",
"FxsjxvnMNBCZAMNDBli0,%+OOO@nDCVBBMmbvcxljhe+O.9F",
"FkshxcbmNBVZMvZSDFFFFVvs4*pFCVBBMmnbvczljfa*oX,F",
"DgdjzvbmMNVMxVZZZZZAASDFFVBCCBBNMnnvcxzkhfs1oo&D",
"SsdhlcvnMNNzNCCCCZZCZZCCCCcNBBNNmmbvxxlkhfs7oo@C",
"ZpfglxvbmMlnVCVVCCVCCCVVVVnbBNMMmbvcxzlkgdaw+XON",
"CufdklxvmzxBBBVBBVVBBVVVVVMlNNMmnvvxxlkjgsiw&ooM",
"Zyq>edzvxjmMNNBBBBBBBBBBBNNzvMmnvvcxzkjgdayes5>C",
"At-o@&<0acnmMMNNNNMNNNNNNMNvzmnbvcxzljjfspwiu2<Z",
"Dt$O+OOO2bbbmmmMmmMMMMMMMmmnhbnbcxxlkhhdayqg9<,S",
"Fy#OO++O*lvbbnnnnmmmmMmMmmnnjzbcxzlkjgfspwii5;2F",
"Fp@oOO++@iccvbbbnnnmnmnnnbbvzgvxllkjgfsatwg92*7F",
"Fh@oOO+Oo6xzxvvbnbbbbbbbbvvczslzkjhgfspu0fy5,$yF",
"FN$oOOO+O=hzzxxcvvbvvvvvccxxzy9wiasdsppqid72;$nF",
"FF,XOOOO++tlllzxcccccxcxxzzla=+@#%;,2530k04,%:FF",
"FFgXOOOOOo,hjklzzzxxzzxlzlkf;O+OOOoooOott61;+iFF",
"FFA%XoOOOO#yhhjjklkllklkjhf<OOOOOOOOOoO082>%$VFF",
"FFFyXOOOOOo,fffhhhjjjjjhgf3+OOOOOoOoOoO05<-OqFFF",
"FFFA:XoOoOOO7psdfffgggfff5+OOOOOOOoooo@01:#$CFFF",
"FFFFk#oooOX#yprrypssddsa5+OOoOOoooOooX&7:&oaFFFF",
"FFFFFr@XoX$yglzfptwertt2+OOOoOOooOoXo.-2*o1FFFFF",
"FFFFFA6#.&rr0etsjkkffs9+oOooooooooXoXX<;o%CFFFFF",
"FFFFFFM3<766890qweypdhk1XoOooOoooooo.O;o%mFFFFFF",
"FFFFFFFv<;<2456688000qwy&XooooooXoX O>#%BFFFFFFF",
"FFFFFFFFb>%:,12344667880q#.oooXoX O=>O&nFFFFFFFF",
"FFFFFFFFFC4@*;:,<<23344477@.X. X+-<$.<CFFFFFFFFF",
"FFFFFFFFFFFu$+&-;::,,,,<<34+o@*,,$ $sFFFFFFFFFFF",
"FFFFFFFFFFFFVw$O#&==-;-;;-=14<*o %ySFFFFFFFFFFFF",
"FFFFFFFFFFFFFFBe&+oo+@#@++%%X o,jDFFFFFFFFFFFFFF",
"FFFFFFFFFFFFFFFFFve1=@oO@%&-4sVFFFFFFFFFFFFFFFFF",
"FFFFFFFFFFFFFFFFFFFFFABCCCDFFFFFFFFFFFFFFFFFFFFF"
};
