<?xml version="1.0" encoding="UTF-8" standalone="no"?>
<!-- Created with Inkscape (http://www.inkscape.org/) -->
<svg
   xmlns:dc="http://purl.org/dc/elements/1.1/"
   xmlns:cc="http://web.resource.org/cc/"
   xmlns:rdf="http://www.w3.org/1999/02/22-rdf-syntax-ns#"
   xmlns:svg="http://www.w3.org/2000/svg"
   xmlns="http://www.w3.org/2000/svg"
   xmlns:sodipodi="http://sodipodi.sourceforge.net/DTD/sodipodi-0.dtd"
   xmlns:inkscape="http://www.inkscape.org/namespaces/inkscape"
   width="115.88871"
   height="115.88871"
   id="svg10205"
   version="1.0">
  <defs
     id="defs10207" />
  <sodipodi:namedview
     id="base"
     pagecolor="#ffffff"
     bordercolor="#666666"
     borderopacity="1.0"
     gridtolerance="10000"
     guidetolerance="10"
     objecttolerance="10"
     inkscape:pageopacity="0.0"
     inkscape:pageshadow="2"
     inkscape:zoom="2.9392531"
     inkscape:cx="-11.891616"
     inkscape:cy="91.216617"
     inkscape:document-units="px"
     inkscape:current-layer="layer1"
     inkscape:window-width="1280"
     inkscape:window-height="993"
     inkscape:window-x="0"
     inkscape:window-y="0" />
  <metadata
     id="metadata10210">
    <rdf:RDF>
      <cc:Work
         rdf:about="">
        <dc:format>image/svg+xml</dc:format>
        <dc:type
           rdf:resource="http://purl.org/dc/dcmitype/StillImage" />
      </cc:Work>
    </rdf:RDF>
  </metadata>
  <g
     id="layer1"
     transform="translate(-42.055643,-51.560686)">
    <path
       style="fill:#ececec;stroke:#000000;stroke-width:1.55346036;stroke-opacity:1"
       d="M 109.53946,144.90481 C 111.23438,144.05161 113.72827,141.3397 115.08147,138.87836 C 117.51057,134.46002 122.66589,132.86353 124.66749,135.90978 C 126.15099,138.16755 132.29528,137.72546 136.32431,135.07106 C 141.05944,131.95146 144.57169,131.10261 142.24172,125.95043 C 137.03614,122.19948 139.07473,112.54528 145.47267,118.46257 L 154.18782,119.88243 C 158.33716,114.92076 158.36185,113.23957 154.30012,112.2405 C 150.66338,111.34597 150.21218,107.74504 153.01249,101.96414 C 154.82133,98.229989 154.44092,97.598242 146.205,90.65886 C 137.17959,83.054275 132.10783,81.54411 128.6719,85.438216 C 126.09715,88.356314 119.67258,88.356314 118.48207,85.438216 C 117.16939,82.220634 112.20725,82.64357 107.12131,86.406519 C 102.91566,89.518172 102.55474,89.543523 97.126201,87.108611 C 90.601546,84.182041 86.030897,85.033589 84.539431,89.453622 C 83.460725,92.65046 82.404297,92.679149 69.406596,89.864597 C 63.192058,88.518884 54.32151,94.80475 53.681766,101.00756 C 53.304614,104.66431 52.065842,106.39179 48.876475,107.70857 C 41.255333,110.85508 40.87485,114.59577 47.870968,117.59404 C 52.710632,119.66816 53.165276,125.30662 48.583738,126.43356 C 46.821797,126.86696 45.38021,127.68484 45.38021,128.2511 C 45.38021,130.52166 49.455978,132.89655 53.352698,132.89655 C 55.934774,132.89655 59.060182,134.58938 61.697517,137.4164 C 64.888005,140.83637 67.290474,141.93624 71.570242,141.93624 C 74.681139,141.93624 77.671887,141.25827 78.216359,140.42962 C 79.915653,137.84343 85.354168,138.76956 91.487273,142.68954 C 97.704289,146.66319 104.41141,147.48624 109.53946,144.90481 z "
       id="path13406"/>
  </g>
</svg>
