<?xml version="1.0" encoding="UTF-8" standalone="no"?>
<!-- Created with Inkscape (http://www.inkscape.org/) -->

<svg
   xmlns:dc="http://purl.org/dc/elements/1.1/"
   xmlns:cc="http://creativecommons.org/ns#"
   xmlns:rdf="http://www.w3.org/1999/02/22-rdf-syntax-ns#"
   xmlns:svg="http://www.w3.org/2000/svg"
   xmlns="http://www.w3.org/2000/svg"
   xmlns:sodipodi="http://sodipodi.sourceforge.net/DTD/sodipodi-0.dtd"
   xmlns:inkscape="http://www.inkscape.org/namespaces/inkscape"
   width="115.88871"
   height="115.88871"
   id="svg10205"
   version="1.0"
   inkscape:version="0.48.1 r9760"
   sodipodi:docname="position.svg">
  <defs
     id="defs10207">
    <inkscape:perspective
       sodipodi:type="inkscape:persp3d"
       inkscape:vp_x="0 : 57.944355 : 1"
       inkscape:vp_y="0 : 1000 : 0"
       inkscape:vp_z="115.88871 : 57.944355 : 1"
       inkscape:persp3d-origin="57.944355 : 38.62957 : 1"
       id="perspective15" />
  </defs>
  <sodipodi:namedview
     id="base"
     pagecolor="#ffffff"
     bordercolor="#666666"
     borderopacity="1.0"
     gridtolerance="10000"
     guidetolerance="10"
     objecttolerance="10"
     inkscape:pageopacity="0.0"
     inkscape:pageshadow="2"
     inkscape:zoom="4.7072082"
     inkscape:cx="26.019516"
     inkscape:cy="66.495126"
     inkscape:document-units="px"
     inkscape:current-layer="layer1"
     inkscape:window-width="1280"
     inkscape:window-height="1009"
     inkscape:window-x="1679"
     inkscape:window-y="14"
     showgrid="false"
     inkscape:window-maximized="0" />
  <metadata
     id="metadata10210">
    <rdf:RDF>
      <cc:Work
         rdf:about="">
        <dc:format>image/svg+xml</dc:format>
        <dc:type
           rdf:resource="http://purl.org/dc/dcmitype/StillImage" />
      </cc:Work>
    </rdf:RDF>
  </metadata>
  <g
     id="layer1"
     transform="translate(-42.055643,-51.560686)">
    <path
       transform="matrix(9.734261e-3,0.8317072,-0.9812619,7.9451042e-3,156.50251,61.16192)"
       d="M 95.385624,58.211208 A 37.495686,56.82774 0 1 1 20.394253,58.211208 A 37.495686,56.82774 0 1 1 95.385624,58.211208 z"
       id="path3646"
       style="opacity:1;fill:#ececec;fill-opacity:1;stroke:#000000;stroke-width:2.54583094;stroke-linecap:butt;marker-start:none;stroke-miterlimit:4;stroke-dasharray:none;stroke-opacity:1" />
    <path
       style="opacity:1;fill:#ececec;fill-opacity:1;stroke:#000000;stroke-width:2.54583098;stroke-linecap:butt;marker-start:none;stroke-miterlimit:4;stroke-dasharray:none;stroke-opacity:1"
       id="path4079"
       d="M 95.385624,58.211208 A 37.495686,56.82774 0 1 1 20.394253,58.211208 A 37.495686,56.82774 0 1 1 95.385624,58.211208 z"
       transform="matrix(-0.8317207,-8.4990796e-3,1.3566042e-2,-0.9812003,147.30415,167.38076)" />
    <path
       style="opacity:1;fill:#ececec;fill-opacity:1;stroke:none;stroke-width:2.29999995;stroke-linecap:butt;stroke-miterlimit:4;stroke-dasharray:none;stroke-opacity:1"
       id="path4137"
       d="M 50.242096,42.384418 A 14.12727,11.153108 0 1 1 21.987556,42.384418 A 14.12727,11.153108 0 1 1 50.242096,42.384418 z"
       transform="translate(42.055643,51.560686)" />
    <path
       style="opacity:1;fill:#ececec;fill-opacity:1;stroke:none;stroke-width:2.29999995;stroke-linecap:butt;stroke-miterlimit:4;stroke-dasharray:none;stroke-opacity:1"
       id="path4139"
       d="M 41.319607,77.171494 A 8.1258354,7.8071752 0 1 1 25.067936,77.171494 A 8.1258354,7.8071752 0 1 1 41.319607,77.171494 z"
       transform="translate(42.055643,51.560686)" />
    <path
       style="opacity:1;fill:#ececec;fill-opacity:1;stroke:none;stroke-width:2.29999995;stroke-linecap:butt;stroke-miterlimit:4;stroke-dasharray:none;stroke-opacity:1"
       id="path4141"
       d="M 35.477504,60.919823 A 7.4885154,12.799519 0 1 1 20.500473,60.919823 A 7.4885154,12.799519 0 1 1 35.477504,60.919823 z"
       transform="translate(42.055643,51.560686)" />
    <path
       style="opacity:1;fill:#ececec;fill-opacity:1;stroke:none;stroke-width:2.29999995;stroke-linecap:butt;stroke-miterlimit:4;stroke-dasharray:none;stroke-opacity:1"
       id="path4143"
       d="M 93.048788,41.109779 A 10.622007,9.4535866 0 1 1 71.804773,41.109779 A 10.622007,9.4535866 0 1 1 93.048788,41.109779 z"
       transform="translate(42.055643,51.560686)" />
    <path
       style="opacity:1;fill:#ececec;fill-opacity:1;stroke:none;stroke-width:2.29999995;stroke-linecap:butt;stroke-miterlimit:4;stroke-dasharray:none;stroke-opacity:1"
       id="path4147"
       d="M 95.385628,71.913597 A 19.332054,14.12727 0 1 1 56.721519,71.913597 A 19.332054,14.12727 0 1 1 95.385628,71.913597 z"
       transform="translate(42.055643,51.560686)" />
    <path
       style="opacity:1;fill:#ececec;fill-opacity:1;stroke:none;stroke-width:2.29999995;stroke-linecap:butt;stroke-miterlimit:4;stroke-dasharray:none;stroke-opacity:1"
       id="path4149"
       d="M 96.022945,53.271976 A 8.3382759,9.6129169 0 1 1 79.346394,53.271976 A 8.3382759,9.6129169 0 1 1 96.022945,53.271976 z"
       transform="translate(42.055643,51.560686)" />
    <path
       style="fill:#d7eef4;fill-opacity:1"
       d="M 53.700467,112.30139 C 49.909513,111.46684 46.447926,109.37637 43.001499,105.84021 C 38.55269,101.27558 34.682668,94.52289 32.241266,87.065015 C 31.867469,85.923147 31.502271,84.929539 31.429723,84.856989 C 31.273125,84.700397 29.775596,84.063196 26.276611,82.664341 C 13.511389,77.560951 5.525447,70.15516 3.7401107,61.765051 C 3.2859795,59.630847 3.4608326,55.669465 4.0977154,53.663631 C 6.1815939,47.100545 11.724722,41.398913 20.666024,36.621549 C 22.658086,35.557187 28.92284,32.811192 30.951157,32.113329 C 31.925956,31.777941 32.022886,31.677629 32.413714,30.599795 C 34.306335,25.380276 36.398116,20.87018 38.368222,17.761246 C 43.013893,10.430119 48.489614,5.7987076 54.337788,4.2540425 C 56.657141,3.6414352 60.27266,3.6323619 62.536573,4.2334634 C 71.352948,6.5743393 78.986071,15.778447 83.620006,29.656091 C 84.310543,31.724113 84.350142,31.786141 85.16007,32.068531 C 89.57891,33.609213 95.618923,36.379435 98.612885,38.238605 C 115.68419,48.839485 116.99395,64.126451 101.81442,75.605794 C 98.350394,78.225417 94.717858,80.196713 88.646871,82.751499 C 86.251609,83.759468 84.153656,84.660656 83.984724,84.754127 C 83.815812,84.847601 83.277362,86.016313 82.788176,87.351266 C 79.755911,95.62613 76.151376,101.55871 71.303661,106.25324 C 68.040368,109.41342 64.89516,111.29224 61.367441,112.18874 C 59.389003,112.69151 55.717659,112.74546 53.700467,112.30139 L 53.700467,112.30139 z"
       id="path2388"
       transform="translate(42.055643,51.560686)" />
  </g>
</svg>
